<svg width="30" height="25" viewBox="0 0 30 25" fill="none" xmlns="http://www.w3.org/2000/svg">
<path d="M26.04 6.26H21.24C21.24 4.73235 20.6331 3.26727 19.5529 2.18706C18.4727 1.10686 17.0076 0.5 15.48 0.5C13.9524 0.5 12.4873 1.10686 11.4071 2.18706C10.3269 3.26727 9.72 4.73235 9.72 6.26H4.92C4.41078 6.26 3.92242 6.46229 3.56235 6.82236C3.20229 7.18243 3 7.67078 3 8.18V22.58C3 23.0892 3.20229 23.5776 3.56235 23.9376C3.92242 24.2977 4.41078 24.5 4.92 24.5H26.04C26.5492 24.5 27.0376 24.2977 27.3976 23.9376C27.7577 23.5776 27.96 23.0892 27.96 22.58V8.18C27.96 7.67078 27.7577 7.18243 27.3976 6.82236C27.0376 6.46229 26.5492 6.26 26.04 6.26ZM15.48 2.42C16.4984 2.42 17.4751 2.82457 18.1953 3.54471C18.9154 4.26485 19.32 5.24157 19.32 6.26H11.64C11.64 5.24157 12.0446 4.26485 12.7647 3.54471C13.4848 2.82457 14.4616 2.42 15.48 2.42ZM26.04 22.58H4.92V8.18H9.72V10.1C9.72 10.3546 9.82114 10.5988 10.0012 10.7788C10.1812 10.9589 10.4254 11.06 10.68 11.06C10.9346 11.06 11.1788 10.9589 11.3588 10.7788C11.5389 10.5988 11.64 10.3546 11.64 10.1V8.18H19.32V10.1C19.32 10.3546 19.4211 10.5988 19.6012 10.7788C19.7812 10.9589 20.0254 11.06 20.28 11.06C20.5346 11.06 20.7788 10.9589 20.9588 10.7788C21.1389 10.5988 21.24 10.3546 21.24 10.1V8.18H26.04V22.58Z" fill="url(#paint0_linear_624_388)"/>
<defs>
<linearGradient id="paint0_linear_624_388" x1="3" y1="12.5" x2="27.96" y2="12.5" gradientUnits="userSpaceOnUse">
<stop stop-color="#FF6C00"/>
<stop offset="1" stop-color="#FFC200"/>
</linearGradient>
</defs>
</svg>
