<svg width="237" height="253" viewBox="0 0 237 253" fill="none" xmlns="http://www.w3.org/2000/svg">
<path d="M0.910645 10.2334C0.910645 4.71056 5.3878 0.233398 10.9106 0.233398H226.09C231.613 0.233398 236.09 4.71055 236.09 10.2334V242.455C236.09 247.977 231.613 252.455 226.09 252.455H10.9106C5.3878 252.455 0.910645 247.977 0.910645 242.455V10.2334Z" fill="url(#paint0_angular_255_6353)"/>
<path fill-rule="evenodd" clip-rule="evenodd" d="M88.7616 36.023C87.3732 36.9613 85.6696 38.294 84.9757 38.9842C84.2818 39.6744 82.1009 41.2657 80.1295 42.5201C75.3772 45.5434 74.2783 47.2692 74.8474 50.8155C75.0916 52.3363 75.7199 54.2319 76.2438 55.0286C78.4962 58.4515 84.7761 76.4397 87.3318 86.7907C92.671 108.409 92.3054 129.05 86.2959 145.324C79.1816 164.589 60.9411 181.258 39.4465 188.136C35.3684 189.442 34.8695 189.779 35.0165 191.136C35.1071 191.976 35.9199 198.373 36.8219 205.35C37.7239 212.327 38.4618 218.278 38.4618 218.573C38.4618 219.814 40.7142 218.96 42.7309 216.954C45.3378 214.361 46.9961 209.314 46.9961 203.973C46.9961 201.883 47.2173 200.173 47.4884 200.171C50.1426 200.157 61.8005 197.773 67.0189 196.177C82.8874 191.325 99.5451 179.847 109.516 166.894L111.259 164.63L116.383 166.094C128.084 169.434 139.855 176.912 149.813 187.329C155.076 192.834 164.341 205.229 165.273 208.011C165.501 208.693 165.847 208.694 167.122 208.015C170.843 206.035 187.484 194.94 187.484 194.44C187.484 193.179 184.698 191.062 182.499 190.651C180.232 190.228 176.072 190.501 170.993 191.405L168.616 191.828L168.16 188.655C166.32 175.891 158.899 162.284 148.602 152.798C143.906 148.473 135.16 142.612 129.301 139.864L125.316 137.995L125.311 131.701C125.306 125.371 123.815 119.256 121.356 115.489C120.463 114.119 120.53 114.04 122.934 113.628C129.597 112.486 141.383 109.206 147.681 106.741C154.097 104.229 154.774 104.086 155.82 105.028C158.784 107.696 159.724 107.647 179.167 103.817C189.338 101.813 198.349 99.7308 199.192 99.1902C200.034 98.6501 201.153 97.1842 201.678 95.9338C202.576 93.7966 202.408 92.533 198.892 75.0437C196.299 62.1401 194.771 55.9486 193.913 54.8634C191.458 51.7584 189.852 51.8192 169.773 55.7854C152.862 59.1253 151.019 59.619 149.355 61.2508C148.349 62.2374 147.432 63.8536 147.318 64.8422C147.204 65.8308 148.213 72.2228 149.561 79.0464C150.908 85.87 152.017 91.5673 152.022 91.707C152.028 91.8468 153.584 91.7854 155.48 91.5705C160.101 91.0462 158.26 91.9891 151.705 93.504C147.59 94.4554 143.825 94.7179 134.309 94.7179C122.651 94.7179 122.047 94.6539 119.249 93.1181C117.363 92.0831 114.93 91.4223 112.356 91.2454C110.168 91.0952 108.008 90.6766 107.557 90.3162C106.241 89.2642 106.532 84.3297 107.989 83.0191C109.951 81.2522 112.135 75.5092 112.482 71.2009C112.763 67.7212 111.847 62.1924 110.361 58.4045C110.044 57.5967 110.783 57.0143 113.539 55.9022C118.145 54.0426 122.012 50.7346 123.747 47.1693C125.173 44.2401 125.62 38.8882 124.44 38.8882C124.067 38.8882 119.861 40.5155 115.095 42.5044L106.428 46.12L105.116 44.3001C100.938 38.503 95.6528 34.3174 92.5108 34.3174C91.8366 34.3174 90.1494 35.0853 88.7616 36.023ZM178.551 61.4695C179.681 64.3982 179.185 64.7782 172.332 66.2298C168.692 67.0003 165.442 67.4645 165.11 67.2602C164.779 67.0564 164.507 66.0456 164.507 65.0152C164.507 63.2561 164.739 63.0948 168.282 62.3896C170.358 61.9763 172.943 61.3944 174.026 61.096C177.065 60.2596 178.118 60.3464 178.551 61.4695Z" fill="white"/>
<path d="M60.5661 177.472C67.3743 174.062 82.712 158.724 86.129 145.092C89.5458 131.46 58.8619 174.063 60.5661 177.472Z" fill="#FFC200"/>
<defs>
<radialGradient id="paint0_angular_255_6353" cx="0" cy="0" r="1" gradientUnits="userSpaceOnUse" gradientTransform="translate(109.979 116.119) rotate(128.66) scale(174.595 162.798)">
<stop stop-color="#FFC200"/>
<stop offset="1" stop-color="#FF6C00"/>
</radialGradient>
</defs>
</svg>
