<svg width="30" height="25" viewBox="0 0 30 25" fill="none" xmlns="http://www.w3.org/2000/svg">
<path d="M7.62 18.62C8.64 17.84 9.78 17.225 11.04 16.775C12.3 16.325 13.62 16.1 15 16.1C16.38 16.1 17.7 16.325 18.96 16.775C20.22 17.225 21.36 17.84 22.38 18.62C23.08 17.8 23.625 16.87 24.015 15.83C24.405 14.79 24.6 13.68 24.6 12.5C24.6 9.84 23.665 7.575 21.795 5.705C19.925 3.835 17.66 2.9 15 2.9C12.34 2.9 10.075 3.835 8.205 5.705C6.335 7.575 5.4 9.84 5.4 12.5C5.4 13.68 5.595 14.79 5.985 15.83C6.375 16.87 6.92 17.8 7.62 18.62ZM15 13.7C13.82 13.7 12.825 13.295 12.015 12.485C11.205 11.675 10.8 10.68 10.8 9.5C10.8 8.32 11.205 7.325 12.015 6.515C12.825 5.705 13.82 5.3 15 5.3C16.18 5.3 17.175 5.705 17.985 6.515C18.795 7.325 19.2 8.32 19.2 9.5C19.2 10.68 18.795 11.675 17.985 12.485C17.175 13.295 16.18 13.7 15 13.7ZM15 24.5C13.34 24.5 11.78 24.185 10.32 23.555C8.86 22.925 7.59 22.07 6.51 20.99C5.43 19.91 4.575 18.64 3.945 17.18C3.315 15.72 3 14.16 3 12.5C3 10.84 3.315 9.28 3.945 7.82C4.575 6.36 5.43 5.09 6.51 4.01C7.59 2.93 8.86 2.075 10.32 1.445C11.78 0.815 13.34 0.5 15 0.5C16.66 0.5 18.22 0.815 19.68 1.445C21.14 2.075 22.41 2.93 23.49 4.01C24.57 5.09 25.425 6.36 26.055 7.82C26.685 9.28 27 10.84 27 12.5C27 14.16 26.685 15.72 26.055 17.18C25.425 18.64 24.57 19.91 23.49 20.99C22.41 22.07 21.14 22.925 19.68 23.555C18.22 24.185 16.66 24.5 15 24.5ZM15 22.1C16.06 22.1 17.06 21.945 18 21.635C18.94 21.325 19.8 20.88 20.58 20.3C19.8 19.72 18.94 19.275 18 18.965C17.06 18.655 16.06 18.5 15 18.5C13.94 18.5 12.94 18.655 12 18.965C11.06 19.275 10.2 19.72 9.42 20.3C10.2 20.88 11.06 21.325 12 21.635C12.94 21.945 13.94 22.1 15 22.1ZM15 11.3C15.52 11.3 15.95 11.13 16.29 10.79C16.63 10.45 16.8 10.02 16.8 9.5C16.8 8.98 16.63 8.55 16.29 8.21C15.95 7.87 15.52 7.7 15 7.7C14.48 7.7 14.05 7.87 13.71 8.21C13.37 8.55 13.2 8.98 13.2 9.5C13.2 10.02 13.37 10.45 13.71 10.79C14.05 11.13 14.48 11.3 15 11.3Z" fill="url(#paint0_linear_624_967)"/>
<defs>
<linearGradient id="paint0_linear_624_967" x1="3" y1="12.5" x2="27" y2="12.5" gradientUnits="userSpaceOnUse">
<stop stop-color="#FF6C00"/>
<stop offset="1" stop-color="#FFC200"/>
</linearGradient>
</defs>
</svg>
