<svg width="30" height="25" viewBox="0 0 30 25" fill="none" xmlns="http://www.w3.org/2000/svg">
<path d="M22.598 5.92901L23.2875 6.40879C24.5114 7.26042 25.5109 8.39702 26.2008 9.71858C26.8907 11.0402 27.2506 12.5092 27.2497 14.0002M22.598 5.92901L26.9997 14M22.598 5.92901L22.9129 6.70774C23.182 7.37306 23.4173 8.076 23.6128 8.80015M22.598 5.92901L23.8542 8.735M27.2497 14.0002L26.9997 14M27.2497 14.0002V14H26.9997M27.2497 14.0002V15.626V15.8573L27.0191 15.8752C26.1174 15.9455 25.214 15.9907 24.3098 16.0109L24.0109 16.0176L24.0572 15.7223C24.4318 13.3319 24.1831 10.9153 23.6128 8.80015M26.9997 14V15.626C26.187 15.6893 25.3729 15.7322 24.5582 15.7547C24.5558 15.7697 24.5535 15.7847 24.5512 15.7997L24.3042 15.761L24.2986 15.5111C24.3128 15.5107 24.327 15.5104 24.3412 15.5101C24.6674 13.1612 24.4118 10.8033 23.8542 8.735M23.6128 8.80015L23.8542 8.735M23.6128 8.80015C23.6128 8.80013 23.6128 8.8001 23.6128 8.80008L23.8542 8.735M23.1447 6.614L23.3764 6.52027C23.426 6.64274 23.4744 6.76641 23.5216 6.89117C23.3986 6.79565 23.2729 6.70321 23.1447 6.614ZM23.1447 6.614L23.0019 6.81921C23.1073 6.89254 23.2109 6.96811 23.3127 7.04584C23.2583 6.90033 23.2022 6.75633 23.1447 6.614ZM8.78509 13.1599L8.80675 12.9671C9.06074 10.7068 10.1386 8.61928 11.8345 7.10346C13.5303 5.58769 15.7251 4.74984 17.9996 4.75L8.78509 13.1599ZM8.78509 13.1599L8.96643 13.2287M8.78509 13.1599L8.96643 13.2287M8.96643 13.2287C13.3402 14.8896 17.2086 15.7451 21.2532 15.9641L21.4703 15.9759M8.96643 13.2287L21.4703 15.9759M21.4703 15.9759L21.512 15.7625M21.4703 15.9759L21.512 15.7625M21.512 15.7625C21.9228 13.6625 21.7363 11.4437 21.1991 9.44995C20.6759 7.50648 19.8541 5.89489 19.0585 4.88573L18.9923 4.80169M21.512 15.7625L18.9923 4.80169M18.9923 4.80169L18.8857 4.79161M18.9923 4.80169L18.8857 4.79161M18.8857 4.79161C18.5912 4.76374 18.2955 4.74985 17.9996 4.75L18.8857 4.79161ZM20.2496 0.75H20.2497C20.7468 0.750024 21.2262 0.935227 21.5942 1.26949C21.9608 1.60247 22.1908 2.05958 22.2398 2.55228L22.2497 2.75606V2.873V3.04149L22.4059 3.10473C24.5091 3.95629 26.3209 5.39834 27.6228 7.25684C28.9241 9.11471 29.6602 11.3094 29.7423 13.5762L29.7497 14.0022V17C29.7497 17.3099 29.6346 17.6087 29.4267 17.8385C29.2189 18.0683 28.9332 18.2127 28.6249 18.2437C27.6937 18.3364 26.7844 18.4081 25.8922 18.4528L25.7986 18.4575L25.7311 18.5226C21.4677 22.6351 18.1478 24.25 14.9082 24.25C13.2361 24.25 11.6882 23.8176 10.1758 23.2279C9.4038 22.9196 8.6407 22.5895 7.8874 22.2379L7.88641 22.2375L6.29641 21.504L6.29557 21.5036C6.0289 21.3818 5.76157 21.2614 5.49358 21.1425C4.51053 20.7058 3.85762 20.6161 3.39483 20.6261L3.39483 20.626L3.38868 20.6263L3.16068 20.6368L3.15108 20.6372L3.14154 20.6384L2.3912 20.7311C2.29098 20.7412 2.19031 20.7462 2.08959 20.746L2.08697 20.746C1.81362 20.7484 1.54259 20.6956 1.29015 20.5907C1.03771 20.4859 0.809051 20.3311 0.617901 20.1357L0.615986 20.1338C0.499743 20.0175 0.40758 19.8794 0.344778 19.7274C0.281976 19.5755 0.249769 19.4126 0.250001 19.2482C0.250233 19.0838 0.282901 18.9211 0.346131 18.7693C0.408337 18.62 0.498922 18.4842 0.612838 18.3694L0.739079 18.2596L6.15618 14.0458L6.25114 13.972L6.25266 13.8517C6.29095 10.8242 7.4964 7.92841 9.61764 5.76803C11.7383 3.60822 14.6107 2.35015 17.6361 2.25595L18.1302 2.24998L18.3047 2.24787L18.3629 2.08333C18.5008 1.69323 18.7563 1.35551 19.0942 1.1167C19.4321 0.877904 19.8358 0.749783 20.2496 0.75ZM8.33532 15.6641L8.2053 15.6167L8.09611 15.7017L5.19061 17.9637L4.80437 18.2644L5.2744 18.4011C5.64942 18.5101 6.05869 18.659 6.50676 18.8573C6.50701 18.8574 6.50725 18.8575 6.5075 18.8576L7.15389 19.1487L7.15553 19.1495L9.47739 20.2152L9.4788 20.2159C10.0224 20.4613 10.5502 20.6897 11.0822 20.8974C12.4525 21.4325 13.672 21.75 14.9067 21.75C16.6956 21.75 18.7496 21.0785 21.4991 18.9186L22.0263 18.5045L21.3567 18.4723C17.3277 18.2786 13.4627 17.4951 9.19839 15.9788C9.19808 15.9787 9.19776 15.9786 9.19745 15.9785L8.33532 15.6641Z" fill="url(#paint0_linear_624_2755)" stroke="white" stroke-width="0.5"/>
<defs>
<linearGradient id="paint0_linear_624_2755" x1="-5.58788e-08" y1="12.5" x2="29.9997" y2="12.5" gradientUnits="userSpaceOnUse">
<stop stop-color="#FF6C00"/>
<stop offset="1" stop-color="#FFC200"/>
</linearGradient>
</defs>
</svg>
